<?xml version="1.0" encoding="iso-8859-1"?>
<!-- Generator: Adobe Illustrator 16.0.0, SVG Export Plug-In . SVG Version: 6.00 Build 0)  -->
<!DOCTYPE svg PUBLIC "-//W3C//DTD SVG 1.1//EN" "http://www.w3.org/Graphics/SVG/1.1/DTD/svg11.dtd">
<svg xmlns="http://www.w3.org/2000/svg" xmlns:xlink="http://www.w3.org/1999/xlink" version="1.1" id="Capa_1" x="0px" y="0px" width="512px" height="512px" viewBox="0 0 38.769 38.77" style="enable-background:new 0 0 38.769 38.77;" xml:space="preserve">
<g>
	<path d="M28.422,11.014l-4.481-4.481l-6.964,6.963c-0.512-0.267-1.09-0.42-1.707-0.42h-1.499c1.936-1.128,3.284-3.148,3.471-5.505   H3.268c0.185,2.355,1.533,4.378,3.47,5.505h-1.5c-2.06,0-3.729,1.67-3.729,3.729v9.678c0,2.062,1.67,2.146,3.729,2.146l2.898-0.064   l1.368,1.367L28.422,11.014z M25.594,11.014l-16.09,16.09l-1.655-1.652L23.941,9.36L25.594,11.014z M29.252,11.842l-18.919,18.92   l8.008,8.008L37.26,19.85L29.252,11.842z M13.161,30.762L29.252,14.67l5.18,5.18L18.341,35.941L13.161,30.762z M32.792,19.545   l-3.087,3.086l-3.418-3.418l3.086-3.086L32.792,19.545z M19.723,27.018l-4.439,4.438l-0.707-0.706l4.438-4.438L19.723,27.018z    M21.218,28.514l-4.438,4.438l-0.707-0.707l4.438-4.438L21.218,28.514z M22.006,29.303l0.707,0.707l-4.437,4.436l-0.707-0.707   L22.006,29.303z M16.56,3.959H3.948C5.085,1.619,7.476,0,10.255,0C13.032,0,15.424,1.619,16.56,3.959z M7.51,4.862   c0.614,0,1.11,0.498,1.11,1.111c0,0.613-0.496,1.111-1.11,1.111c-0.612,0-1.11-0.498-1.11-1.111C6.4,5.36,6.898,4.862,7.51,4.862z    M12.997,4.862c0.613,0,1.109,0.498,1.109,1.111c0,0.613-0.496,1.111-1.109,1.111c-0.614,0-1.112-0.498-1.112-1.111   C11.885,5.36,12.383,4.862,12.997,4.862z" fill="#ffffff"/>
</g>
<g>
</g>
<g>
</g>
<g>
</g>
<g>
</g>
<g>
</g>
<g>
</g>
<g>
</g>
<g>
</g>
<g>
</g>
<g>
</g>
<g>
</g>
<g>
</g>
<g>
</g>
<g>
</g>
<g>
</g>
</svg>
